UFC 116: Lesnar vs Carwin [SatRiP-XviD-Mp3-ENG][TNTVillage.Scambioetico]



General
Complete name                    : C:UFC.116.Lesnar.vs.Carwin.DSR.XviD-XWT-Part1.avi
Format                           : AVI
Format/Info                      : Audio Video Interleave
File size                        : 732 MiB
Duration                         : 1h 27mn
Overall bit rate                 : 1 163 Kbps

Video
Format                           : MPEG-4 Visual
Format profile                   : Streaming Video@L1
Format settings, BVOP            : Yes
Format settings, QPel            : No
Format settings, GMC             : No warppoints
Format settings, Matrix          : Default
Codec ID                         : XVID
Codec ID/Hint                    : XviD
Duration                         : 1h 27mn
Bit rate                         : 1 023 Kbps
Width                            : 640 pixels
Height                           : 368 pixels
Display aspect ratio             : 16/9
Frame rate                       : 25.000 fps
Resolution                       : 24 bits
Colorimetry                      : 4:2:0
Scan type                        : Progressive
Bits/(Pixel*Frame)               : 0.174
Stream size                      : 643 MiB (88%)
Writing library                  : XviD 1.1.2 (UTC 2006-11-01)

Audio
Format                           : MPEG Audio
Format version                   : Version 1
Format profile                   : Layer 3
Codec ID                         : 55
Codec ID/Hint                    : MP3
Duration                         : 1h 27mn
Bit rate mode                    : Constant
Bit rate                         : 128 Kbps
Channel(s)                       : 2 channels
Sampling rate                    : 44.1 KHz
Resolution                       : 16 bits
Stream size                      : 80.5 MiB (11%)
Alignment                        : Aligned on interleaves
Interleave, duration             : 26 ms (0.65 video frame)
Interleave, preload duration     : 809 ms

 
http://uptiki.com/images/xbrdqxip63i6d7jjsbzt.png
 
http://uptiki.com/images/6dcrb77pchpdhatjf5sn.png
 
http://uptiki.com/images/395r0o1dffgcaetydemx.png
 
http://uptiki.com/images/3hgaw18nygvi79amvzbi.png
 
http://uptiki.com/images/geljldfs0hs4qgfvjrn.png
 
http://uptiki.com/images/lxc2xj7fxfv7ioltlcv2.png
 
http://uptiki.com/images/htvsonk7yegp48cyyt3.png
 
http://uptiki.com/images/0qoh9tzfqasxb9igncpf.png